# xmcd
#
# Track frame offsets: 
#        150
#        23283
#        43227
#        65779
#        88046
#        107774
#        131905
#        155470
#        178536
#        197132
#        219503
#        242295
#        260976
#
# Disc length: 3747 seconds
#
# Revision: 0
# Processed by: cddbd v1.5.2PL0 Copyright (c) Steve Scherf et al.
# Submitted via: ExactAudioCopyFreeDBPlugin 1.0
#
DISCID=b90ea10d
DTITLE=Fabiola Shyne - Mwen Love
DYEAR=2012
DGENRE=World
TTITLE0=Je T'attends
TTITLE1=Mwne Love
TTITLE2=Ecoute Cette Musique (Le Compas C'bien)
TTITLE3=Naturellement
TTITLE4=Viens Ce Soir
TTITLE5=Pa Gain Doute
TTITLE6=Ou Santi'w Béni
TTITLE7=Ma Maman
TTITLE8=Tu Me Disais
TTITLE9=M'pap Lagè'w
TTITLE10=Map Chèché'w
TTITLE11=Je T'attends (Acoustique)
TTITLE12=Ou Santi'w Béni (Acoustique)
EXTD=
EXTT0=
EXTT1=
EXTT2=
EXTT3=
EXTT4=
EXTT5=
EXTT6=
EXTT7=
EXTT8=
EXTT9=
EXTT10=
EXTT11=
EXTT12=
PLAYORDER=
